<svg xmlns="http://www.w3.org/2000/svg" xmlns:xlink="http://www.w3.org/1999/xlink">
  <defs>
    <!-- Аналог icon-header-basket: белая силуэтная корзина через currentColor (как на Rozetka) -->
    <symbol id="icon-header-basket" viewBox="0 0 24 24">
      <path
        fill="currentColor"
        d="M7 18c-1.1 0-2 .9-2 2s.9 2 2 2 2-.9 2-2-.9-2-2-2zM1 2v2h2l3.6 7.59-1.35 2.45c-.16.28-.25.61-.25.96 0 1.1.9 2 2 2h12v-2H7.42c-.14 0-.25-.11-.25-.25l.03-.12.94-1.7H15.5c.62 0 1.18-.34 1.47-.88l3.58-6.49c.08-.15.12-.31.12-.48 0-.55-.45-1-1-1H5.21L4.27 2H1zm16 16c-1.1 0-2 .9-2 2s.9 2 2 2 2-.9 2-2-.9-2-2-2z"
      />
    </symbol>
  </defs>
</svg>
